<mxfile host="app.diagrams.net" modified="2023-03-01T19:17:48.717Z" agent="5.0 (Windows)" etag="0Ku9-sF1s5o2puBB2njf" version="20.8.22" type="github">
  <diagram name="Page-1" id="TInnaNvXgo5wHMZR5hZs">
    <mxGraphModel dx="1863" dy="553" grid="1" gridSize="10" guides="1" tooltips="1" connect="1" arrows="1" fold="1" page="1" pageScale="1" pageWidth="827" pageHeight="1169" math="0" shadow="0">
      <root>
        <mxCell id="0" />
        <mxCell id="1" parent="0" />
        <mxCell id="aV8iwCZ988Jx_RelG2w6-1" value="Gestor" style="shape=umlActor;verticalLabelPosition=bottom;verticalAlign=top;html=1;outlineConnect=0;" vertex="1" parent="1">
          <mxGeometry x="381" y="400" width="30" height="60" as="geometry" />
        </mxCell>
        <mxCell id="aV8iwCZ988Jx_RelG2w6-6" value="" style="endArrow=classic;html=1;rounded=0;entryX=0.5;entryY=1;entryDx=0;entryDy=0;" edge="1" parent="1">
          <mxGeometry width="50" height="50" relative="1" as="geometry">
            <mxPoint x="371" y="430" as="sourcePoint" />
            <mxPoint x="116" y="325" as="targetPoint" />
          </mxGeometry>
        </mxCell>
        <mxCell id="aV8iwCZ988Jx_RelG2w6-7" value="GESTIONAR DATOS&#xa;ARTÍCULOS&#xa;" style="ellipse;fontFamily=Verdana;" vertex="1" parent="1">
          <mxGeometry x="50" y="250" width="150" height="65" as="geometry" />
        </mxCell>
        <mxCell id="aV8iwCZ988Jx_RelG2w6-13" value="" style="endArrow=classic;html=1;rounded=0;entryX=0.5;entryY=1;entryDx=0;entryDy=0;" edge="1" parent="1" target="aV8iwCZ988Jx_RelG2w6-30">
          <mxGeometry width="50" height="50" relative="1" as="geometry">
            <mxPoint x="411" y="390" as="sourcePoint" />
            <mxPoint x="416" y="315" as="targetPoint" />
          </mxGeometry>
        </mxCell>
        <mxCell id="aV8iwCZ988Jx_RelG2w6-14" value="" style="endArrow=classic;html=1;rounded=0;entryX=0.5;entryY=1;entryDx=0;entryDy=0;" edge="1" parent="1" target="aV8iwCZ988Jx_RelG2w6-41">
          <mxGeometry width="50" height="50" relative="1" as="geometry">
            <mxPoint x="435" y="430" as="sourcePoint" />
            <mxPoint x="715" y="325" as="targetPoint" />
          </mxGeometry>
        </mxCell>
        <mxCell id="aV8iwCZ988Jx_RelG2w6-18" value="include" style="html=1;verticalAlign=bottom;labelBackgroundColor=none;endArrow=open;endFill=0;dashed=1;rounded=0;fontFamily=Verdana;exitX=0;exitY=0.5;exitDx=0;exitDy=0;entryX=0.5;entryY=1;entryDx=0;entryDy=0;" edge="1" parent="1" source="aV8iwCZ988Jx_RelG2w6-7" target="aV8iwCZ988Jx_RelG2w6-19">
          <mxGeometry x="-0.5294" y="7" width="160" relative="1" as="geometry">
            <mxPoint x="90" y="256" as="sourcePoint" />
            <mxPoint x="30" y="190" as="targetPoint" />
            <mxPoint as="offset" />
          </mxGeometry>
        </mxCell>
        <mxCell id="aV8iwCZ988Jx_RelG2w6-19" value="DAR ALTA&#xa;ARTÍCULO&#xa;&#xa;" style="ellipse;fontFamily=Verdana;fontSize=9;align=center;verticalAlign=top;labelPosition=center;verticalLabelPosition=middle;" vertex="1" parent="1">
          <mxGeometry x="-110" y="170" width="80.77" height="35" as="geometry" />
        </mxCell>
        <mxCell id="aV8iwCZ988Jx_RelG2w6-20" value="DAR BAJA&#xa;ARTÍCULO&#xa;&#xa;" style="ellipse;fontFamily=Verdana;fontSize=9;align=center;verticalAlign=top;labelPosition=center;verticalLabelPosition=middle;" vertex="1" parent="1">
          <mxGeometry x="-20" y="170" width="80.77" height="35" as="geometry" />
        </mxCell>
        <mxCell id="aV8iwCZ988Jx_RelG2w6-21" value="MODIFICAR &#xa;DATOS ARTÍCULO&#xa;&#xa;" style="ellipse;fontFamily=Verdana;fontSize=9;align=center;verticalAlign=top;labelPosition=center;verticalLabelPosition=middle;spacing=0;" vertex="1" parent="1">
          <mxGeometry x="70" y="170" width="80.77" height="35" as="geometry" />
        </mxCell>
        <mxCell id="aV8iwCZ988Jx_RelG2w6-24" value="CONSULTAR&#xa;ARTÍCULO&#xa;&#xa;" style="ellipse;fontFamily=Verdana;fontSize=9;align=center;verticalAlign=top;labelPosition=center;verticalLabelPosition=middle;" vertex="1" parent="1">
          <mxGeometry x="160" y="170" width="80.77" height="35" as="geometry" />
        </mxCell>
        <mxCell id="aV8iwCZ988Jx_RelG2w6-25" value="GENERAR INFORME&#xa;ARTÍCULO&#xa;&#xa;" style="ellipse;fontFamily=Verdana;fontSize=9;align=center;verticalAlign=top;labelPosition=center;verticalLabelPosition=middle;" vertex="1" parent="1">
          <mxGeometry x="-110" y="300" width="80.77" height="35" as="geometry" />
        </mxCell>
        <mxCell id="aV8iwCZ988Jx_RelG2w6-26" value="include" style="html=1;verticalAlign=bottom;labelBackgroundColor=none;endArrow=open;endFill=0;dashed=1;rounded=0;fontFamily=Verdana;exitX=0;exitY=1;exitDx=0;exitDy=0;entryX=1;entryY=0.5;entryDx=0;entryDy=0;" edge="1" parent="1" source="aV8iwCZ988Jx_RelG2w6-7" target="aV8iwCZ988Jx_RelG2w6-25">
          <mxGeometry x="-0.5294" y="7" width="160" relative="1" as="geometry">
            <mxPoint x="60" y="293" as="sourcePoint" />
            <mxPoint x="-60" y="215" as="targetPoint" />
            <mxPoint as="offset" />
          </mxGeometry>
        </mxCell>
        <mxCell id="aV8iwCZ988Jx_RelG2w6-27" value="include" style="html=1;verticalAlign=bottom;labelBackgroundColor=none;endArrow=open;endFill=0;dashed=1;rounded=0;fontFamily=Verdana;exitX=0;exitY=0;exitDx=0;exitDy=0;entryX=0.607;entryY=0.971;entryDx=0;entryDy=0;entryPerimeter=0;" edge="1" parent="1" source="aV8iwCZ988Jx_RelG2w6-7" target="aV8iwCZ988Jx_RelG2w6-20">
          <mxGeometry x="-0.5294" y="7" width="160" relative="1" as="geometry">
            <mxPoint x="82" y="315" as="sourcePoint" />
            <mxPoint x="-19" y="328" as="targetPoint" />
            <mxPoint as="offset" />
          </mxGeometry>
        </mxCell>
        <mxCell id="aV8iwCZ988Jx_RelG2w6-28" value="include" style="html=1;verticalAlign=bottom;labelBackgroundColor=none;endArrow=open;endFill=0;dashed=1;rounded=0;fontFamily=Verdana;exitX=0.5;exitY=0;exitDx=0;exitDy=0;entryX=0.5;entryY=1;entryDx=0;entryDy=0;" edge="1" parent="1" source="aV8iwCZ988Jx_RelG2w6-7" target="aV8iwCZ988Jx_RelG2w6-21">
          <mxGeometry x="-0.5294" y="7" width="160" relative="1" as="geometry">
            <mxPoint x="92" y="325" as="sourcePoint" />
            <mxPoint x="-9" y="338" as="targetPoint" />
            <mxPoint as="offset" />
          </mxGeometry>
        </mxCell>
        <mxCell id="aV8iwCZ988Jx_RelG2w6-29" value="include" style="html=1;verticalAlign=bottom;labelBackgroundColor=none;endArrow=open;endFill=0;dashed=1;rounded=0;fontFamily=Verdana;exitX=1;exitY=0;exitDx=0;exitDy=0;entryX=0.371;entryY=1.143;entryDx=0;entryDy=0;entryPerimeter=0;" edge="1" parent="1" source="aV8iwCZ988Jx_RelG2w6-7" target="aV8iwCZ988Jx_RelG2w6-24">
          <mxGeometry x="-0.5294" y="7" width="160" relative="1" as="geometry">
            <mxPoint x="102" y="335" as="sourcePoint" />
            <mxPoint x="1" y="348" as="targetPoint" />
            <mxPoint as="offset" />
          </mxGeometry>
        </mxCell>
        <mxCell id="aV8iwCZ988Jx_RelG2w6-30" value="GESTIONAR DATOS&#xa;FACTURAS&#xa;" style="ellipse;fontFamily=Verdana;" vertex="1" parent="1">
          <mxGeometry x="400.77" y="220" width="150" height="65" as="geometry" />
        </mxCell>
        <mxCell id="aV8iwCZ988Jx_RelG2w6-31" value="include" style="html=1;verticalAlign=bottom;labelBackgroundColor=none;endArrow=open;endFill=0;dashed=1;rounded=0;fontFamily=Verdana;exitX=0;exitY=0.5;exitDx=0;exitDy=0;entryX=0.5;entryY=1;entryDx=0;entryDy=0;" edge="1" parent="1" source="aV8iwCZ988Jx_RelG2w6-30" target="aV8iwCZ988Jx_RelG2w6-32">
          <mxGeometry x="-0.5294" y="7" width="160" relative="1" as="geometry">
            <mxPoint x="440.77" y="246" as="sourcePoint" />
            <mxPoint x="380.77" y="180" as="targetPoint" />
            <mxPoint as="offset" />
          </mxGeometry>
        </mxCell>
        <mxCell id="aV8iwCZ988Jx_RelG2w6-32" value="DAR ALTA&#xa;FACTURAS&#xa;&#xa;" style="ellipse;fontFamily=Verdana;fontSize=9;align=center;verticalAlign=top;labelPosition=center;verticalLabelPosition=middle;" vertex="1" parent="1">
          <mxGeometry x="280" y="115" width="80.77" height="35" as="geometry" />
        </mxCell>
        <mxCell id="aV8iwCZ988Jx_RelG2w6-33" value="DAR BAJA&#xa;FACTURAS&#xa;&#xa;" style="ellipse;fontFamily=Verdana;fontSize=9;align=center;verticalAlign=top;labelPosition=center;verticalLabelPosition=middle;" vertex="1" parent="1">
          <mxGeometry x="368.46" y="120" width="80.77" height="35" as="geometry" />
        </mxCell>
        <mxCell id="aV8iwCZ988Jx_RelG2w6-34" value="MODIFICAR &#xa;DATOS FACTURAS&#xa;&#xa;" style="ellipse;fontFamily=Verdana;fontSize=9;align=center;verticalAlign=top;labelPosition=center;verticalLabelPosition=middle;spacing=0;" vertex="1" parent="1">
          <mxGeometry x="449.22999999999996" y="150" width="80.77" height="35" as="geometry" />
        </mxCell>
        <mxCell id="aV8iwCZ988Jx_RelG2w6-35" value="CONSULTAR&#xa;FACTURAS&#xa;&#xa;" style="ellipse;fontFamily=Verdana;fontSize=9;align=center;verticalAlign=top;labelPosition=center;verticalLabelPosition=middle;" vertex="1" parent="1">
          <mxGeometry x="530" y="170" width="80.77" height="35" as="geometry" />
        </mxCell>
        <mxCell id="aV8iwCZ988Jx_RelG2w6-36" value="GENERAR INFORME&#xa;FACTURAS&#xa;&#xa;&#xa;" style="ellipse;fontFamily=Verdana;fontSize=9;align=center;verticalAlign=top;labelPosition=center;verticalLabelPosition=middle;" vertex="1" parent="1">
          <mxGeometry x="260" y="230" width="80.77" height="35" as="geometry" />
        </mxCell>
        <mxCell id="aV8iwCZ988Jx_RelG2w6-37" value="include" style="html=1;verticalAlign=bottom;labelBackgroundColor=none;endArrow=open;endFill=0;dashed=1;rounded=0;fontFamily=Verdana;exitX=0;exitY=1;exitDx=0;exitDy=0;entryX=1;entryY=0.5;entryDx=0;entryDy=0;" edge="1" parent="1" source="aV8iwCZ988Jx_RelG2w6-30" target="aV8iwCZ988Jx_RelG2w6-36">
          <mxGeometry x="-0.5294" y="7" width="160" relative="1" as="geometry">
            <mxPoint x="410.77" y="283" as="sourcePoint" />
            <mxPoint x="290.77" y="205" as="targetPoint" />
            <mxPoint as="offset" />
          </mxGeometry>
        </mxCell>
        <mxCell id="aV8iwCZ988Jx_RelG2w6-38" value="include" style="html=1;verticalAlign=bottom;labelBackgroundColor=none;endArrow=open;endFill=0;dashed=1;rounded=0;fontFamily=Verdana;exitX=0;exitY=0;exitDx=0;exitDy=0;entryX=0.607;entryY=0.971;entryDx=0;entryDy=0;entryPerimeter=0;" edge="1" parent="1" source="aV8iwCZ988Jx_RelG2w6-30" target="aV8iwCZ988Jx_RelG2w6-33">
          <mxGeometry x="-0.5294" y="7" width="160" relative="1" as="geometry">
            <mxPoint x="432.77" y="305" as="sourcePoint" />
            <mxPoint x="331.77" y="318" as="targetPoint" />
            <mxPoint as="offset" />
          </mxGeometry>
        </mxCell>
        <mxCell id="aV8iwCZ988Jx_RelG2w6-39" value="include" style="html=1;verticalAlign=bottom;labelBackgroundColor=none;endArrow=open;endFill=0;dashed=1;rounded=0;fontFamily=Verdana;exitX=0.5;exitY=0;exitDx=0;exitDy=0;entryX=0.5;entryY=1;entryDx=0;entryDy=0;" edge="1" parent="1" source="aV8iwCZ988Jx_RelG2w6-30" target="aV8iwCZ988Jx_RelG2w6-34">
          <mxGeometry x="-0.5294" y="7" width="160" relative="1" as="geometry">
            <mxPoint x="442.77" y="315" as="sourcePoint" />
            <mxPoint x="341.77" y="328" as="targetPoint" />
            <mxPoint as="offset" />
          </mxGeometry>
        </mxCell>
        <mxCell id="aV8iwCZ988Jx_RelG2w6-40" value="include" style="html=1;verticalAlign=bottom;labelBackgroundColor=none;endArrow=open;endFill=0;dashed=1;rounded=0;fontFamily=Verdana;exitX=1;exitY=0;exitDx=0;exitDy=0;entryX=0.371;entryY=1.143;entryDx=0;entryDy=0;entryPerimeter=0;" edge="1" parent="1" source="aV8iwCZ988Jx_RelG2w6-30" target="aV8iwCZ988Jx_RelG2w6-35">
          <mxGeometry x="-0.5294" y="7" width="160" relative="1" as="geometry">
            <mxPoint x="452.77" y="325" as="sourcePoint" />
            <mxPoint x="351.77" y="338" as="targetPoint" />
            <mxPoint as="offset" />
          </mxGeometry>
        </mxCell>
        <mxCell id="aV8iwCZ988Jx_RelG2w6-41" value="GESTIONAR DATOS&#xa;CLIENTES&#xa;" style="ellipse;fontFamily=Verdana;" vertex="1" parent="1">
          <mxGeometry x="751.54" y="260" width="150" height="65" as="geometry" />
        </mxCell>
        <mxCell id="aV8iwCZ988Jx_RelG2w6-42" value="include" style="html=1;verticalAlign=bottom;labelBackgroundColor=none;endArrow=open;endFill=0;dashed=1;rounded=0;fontFamily=Verdana;exitX=0;exitY=0;exitDx=0;exitDy=0;entryX=0.5;entryY=1;entryDx=0;entryDy=0;" edge="1" parent="1" source="aV8iwCZ988Jx_RelG2w6-41" target="aV8iwCZ988Jx_RelG2w6-43">
          <mxGeometry x="-0.5294" y="7" width="160" relative="1" as="geometry">
            <mxPoint x="791.54" y="286" as="sourcePoint" />
            <mxPoint x="731.54" y="220" as="targetPoint" />
            <mxPoint as="offset" />
          </mxGeometry>
        </mxCell>
        <mxCell id="aV8iwCZ988Jx_RelG2w6-43" value="DAR ALTA&#xa;CLIENTES&#xa;&#xa;" style="ellipse;fontFamily=Verdana;fontSize=9;align=center;verticalAlign=top;labelPosition=center;verticalLabelPosition=middle;" vertex="1" parent="1">
          <mxGeometry x="670.77" y="190" width="80.77" height="35" as="geometry" />
        </mxCell>
        <mxCell id="aV8iwCZ988Jx_RelG2w6-44" value="DAR BAJA&#xa;CLIENTES&#xa;&#xa;" style="ellipse;fontFamily=Verdana;fontSize=9;align=center;verticalAlign=top;labelPosition=center;verticalLabelPosition=middle;" vertex="1" parent="1">
          <mxGeometry x="751.54" y="155" width="80.77" height="35" as="geometry" />
        </mxCell>
        <mxCell id="aV8iwCZ988Jx_RelG2w6-45" value="MODIFICAR &#xa;DATOS CLIENTES&#xa;&#xa;" style="ellipse;fontFamily=Verdana;fontSize=9;align=center;verticalAlign=top;labelPosition=center;verticalLabelPosition=middle;spacing=0;" vertex="1" parent="1">
          <mxGeometry x="850" y="195" width="80.77" height="35" as="geometry" />
        </mxCell>
        <mxCell id="aV8iwCZ988Jx_RelG2w6-46" value="CONSULTAR&#xa;CLIENTES&#xa;&#xa;" style="ellipse;fontFamily=Verdana;fontSize=9;align=center;verticalAlign=top;labelPosition=center;verticalLabelPosition=middle;" vertex="1" parent="1">
          <mxGeometry x="960" y="250" width="80.77" height="35" as="geometry" />
        </mxCell>
        <mxCell id="aV8iwCZ988Jx_RelG2w6-47" value="GENERAR INFORME&#xa;CLIENTES&#xa;&#xa;&#xa;" style="ellipse;fontFamily=Verdana;fontSize=9;align=center;verticalAlign=top;labelPosition=center;verticalLabelPosition=middle;" vertex="1" parent="1">
          <mxGeometry x="620" y="260" width="80.77" height="35" as="geometry" />
        </mxCell>
        <mxCell id="aV8iwCZ988Jx_RelG2w6-48" value="include" style="html=1;verticalAlign=bottom;labelBackgroundColor=none;endArrow=open;endFill=0;dashed=1;rounded=0;fontFamily=Verdana;exitX=0;exitY=1;exitDx=0;exitDy=0;entryX=1;entryY=0.5;entryDx=0;entryDy=0;" edge="1" parent="1" source="aV8iwCZ988Jx_RelG2w6-41" target="aV8iwCZ988Jx_RelG2w6-47">
          <mxGeometry x="-0.5294" y="7" width="160" relative="1" as="geometry">
            <mxPoint x="761.54" y="323" as="sourcePoint" />
            <mxPoint x="641.54" y="245" as="targetPoint" />
            <mxPoint as="offset" />
          </mxGeometry>
        </mxCell>
        <mxCell id="aV8iwCZ988Jx_RelG2w6-49" value="include" style="html=1;verticalAlign=bottom;labelBackgroundColor=none;endArrow=open;endFill=0;dashed=1;rounded=0;fontFamily=Verdana;exitX=0.296;exitY=-0.015;exitDx=0;exitDy=0;entryX=0.607;entryY=0.971;entryDx=0;entryDy=0;entryPerimeter=0;exitPerimeter=0;" edge="1" parent="1" source="aV8iwCZ988Jx_RelG2w6-41" target="aV8iwCZ988Jx_RelG2w6-44">
          <mxGeometry x="-0.5294" y="7" width="160" relative="1" as="geometry">
            <mxPoint x="783.54" y="345" as="sourcePoint" />
            <mxPoint x="682.54" y="358" as="targetPoint" />
            <mxPoint as="offset" />
          </mxGeometry>
        </mxCell>
        <mxCell id="aV8iwCZ988Jx_RelG2w6-50" value="include" style="html=1;verticalAlign=bottom;labelBackgroundColor=none;endArrow=open;endFill=0;dashed=1;rounded=0;fontFamily=Verdana;exitX=0.77;exitY=0.092;exitDx=0;exitDy=0;entryX=0.5;entryY=1;entryDx=0;entryDy=0;exitPerimeter=0;" edge="1" parent="1" source="aV8iwCZ988Jx_RelG2w6-41" target="aV8iwCZ988Jx_RelG2w6-45">
          <mxGeometry x="-0.5294" y="7" width="160" relative="1" as="geometry">
            <mxPoint x="793.54" y="355" as="sourcePoint" />
            <mxPoint x="692.54" y="368" as="targetPoint" />
            <mxPoint as="offset" />
          </mxGeometry>
        </mxCell>
        <mxCell id="aV8iwCZ988Jx_RelG2w6-51" value="include" style="html=1;verticalAlign=bottom;labelBackgroundColor=none;endArrow=open;endFill=0;dashed=1;rounded=0;fontFamily=Verdana;exitX=1;exitY=0.5;exitDx=0;exitDy=0;" edge="1" parent="1" source="aV8iwCZ988Jx_RelG2w6-41">
          <mxGeometry x="-0.5294" y="7" width="160" relative="1" as="geometry">
            <mxPoint x="803.54" y="365" as="sourcePoint" />
            <mxPoint x="970" y="280" as="targetPoint" />
            <mxPoint as="offset" />
          </mxGeometry>
        </mxCell>
      </root>
    </mxGraphModel>
  </diagram>
</mxfile>
